<?xml version="1.0" encoding="UTF-8"?>
<svg id="Capa_2" xmlns="http://www.w3.org/2000/svg" viewBox="0 0 384.48 244.02">
  <g id="Guías">
    <g>
      <path d="M101.29,194.7c.21-2.95.4-5.69.6-8.42.62-8.47,1.25-16.94,1.88-25.4.55-7.35,1.12-14.7,1.67-22.05.4-5.44.77-10.89,1.17-16.33.52-6.99,1.06-13.98,1.58-20.97.48-6.49,1.01-12.97,1.4-19.46.57-9.34,1.81-18.54,5.04-27.39,3.68-10.1,9.03-19.2,16.23-27.18,11.71-12.96,26.07-21.57,43.11-25.34,23.52-5.2,45.44-1.03,65.28,12.67,17.1,11.81,28.06,28.04,33.12,48.22,1.35,5.38,1.95,10.87,2.33,16.39.43,6.35.95,12.68,1.41,19.03.41,5.55.78,11.1,1.19,16.65.44,5.98.91,11.96,1.36,17.94.43,5.66.84,11.32,1.27,16.97.69,9.19,1.38,18.38,2.07,27.56.39,5.3.75,10.6,1.17,15.89.08,1.03-.24,1.28-1.23,1.28-10.09-.04-20.17-.05-30.26-.06-16.49,0-32.97,0-49.46,0-27.69,0-55.39,0-83.08,0-5.42,0-10.85,0-16.27,0-.46,0-.92,0-1.58,0ZM191.46,16.62c-.18-.16-.22-.23-.27-.24-.28-.06-.57-.12-.85-.16-8.3-1.15-16.45-.53-24.41,2.11-10.69,3.55-19.52,9.79-26.32,18.79-6.39,8.46-10.03,17.99-10.78,28.59-.36,5.05-.73,10.09-1.11,15.14-.62,8.32-1.26,16.65-1.89,24.97-.78,10.38-1.55,20.76-2.31,31.15-.15,2.01-.27,4.02-.41,6.08.43.07.74.16,1.06.16,5.42-.02,10.85-.06,16.27-.05.79,0,1-.31,1.04-1,.05-1.15.15-2.31.23-3.46.39-5.37.78-10.74,1.18-16.11.4-5.41.82-10.81,1.22-16.22.39-5.26.75-10.53,1.14-15.79.49-6.66.93-13.33,1.53-19.99.39-4.34.57-8.79,1.65-12.98,5.61-21.7,19.48-35.19,41.23-40.57.57-.14,1.15-.26,1.82-.42Z"/>
      <path d="M321.31,244.02H63.19c-.07-3.34.36-6.55,1.13-9.7,4.02-16.43,17.54-28.69,34.3-30.91,3.63-.48,7.35-.44,11.03-.44,25.74-.03,51.48,0,77.22,0,26.46,0,52.93-.05,79.39-.07,4.59,0,9.18,0,13.77,0,18.75.02,34.78,12.16,39.85,30.2.92,3.28,1.43,6.64,1.47,10.05,0,.28-.04.56-.06.87ZM122.25,209.4c-4.19,0-8.38-.08-12.56.01-12.05.27-22.49,8.61-25.45,20.29-.56,2.19-.93,4.42-.75,6.72h12.79c.28-15.31,12.43-26.5,25.96-27.03Z"/>
      <path d="M342.57,74.97c12.29,0,24.58,0,36.87,0,2.98,0,5.08,2.07,5.04,4.91-.04,2.73-2.16,4.76-4.99,4.76-6.98,0-13.95,0-20.93,0-17.64,0-35.28,0-52.92,0-2.97,0-5.12-2.05-5.11-4.87,0-2.78,2.11-4.8,5.06-4.81,12.33,0,24.65,0,36.98,0Z"/>
      <path d="M42.1,74.97c12.29,0,24.58-.01,36.87,0,3.75,0,6.13,3.71,4.49,6.97-.96,1.9-2.59,2.71-4.7,2.7-6.04-.02-12.07,0-18.11,0-18.4,0-36.79,0-55.19,0-.57,0-1.16-.03-1.72-.16-2.49-.59-3.98-2.71-3.71-5.22.25-2.43,2.27-4.28,4.77-4.29,4.66-.03,9.32,0,13.99,0,7.77,0,15.54,0,23.31,0h0Z"/>
      <path d="M353.86,141.19c-.02,3.63-3.69,5.88-7.02,4.24-4.01-1.98-7.97-4.08-11.95-6.12-12.4-6.37-24.8-12.74-37.2-19.1-1.98-1.01-3.15-2.54-3-4.83.13-2.02,1.2-3.46,3.09-4.19,1.34-.52,2.69-.43,3.98.23,15.67,8.05,31.34,16.1,47.01,24.16,1.15.59,2.31,1.19,3.37,1.93,1.24.87,1.72,2.18,1.71,3.68Z"/>
      <path d="M89.78,116.4c-.07,1.35-1.01,2.77-2.77,3.68-6.87,3.53-13.74,7.07-20.61,10.61-9.41,4.84-18.82,9.66-28.21,14.52-1.85.96-3.66,1.12-5.44-.04-1.6-1.04-2.27-2.59-2.11-4.46.15-1.85,1.17-3.14,2.79-3.97,8.38-4.31,16.77-8.61,25.15-12.91,8.03-4.12,16.05-8.28,24.09-12.36,3.4-1.73,7.17.6,7.11,4.95Z"/>
      <path d="M35.15,14.3c.75.23,1.53.38,2.23.71,8.9,4.15,17.79,8.32,26.69,12.49,7.52,3.52,15.03,7.06,22.55,10.57,1.85.86,3.03,2.21,3.16,4.29.24,3.71-3.45,6.21-6.93,4.63-4.44-2.01-8.83-4.13-13.25-6.19-11.9-5.58-23.8-11.15-35.7-16.72-1.44-.67-2.73-1.46-3.32-3.06-1.2-3.24,1.07-6.56,4.57-6.72Z"/>
      <path d="M299.48,47.57c-2.28-.13-4.13-1.6-4.66-3.81-.54-2.24.51-4.48,2.63-5.5,3.13-1.5,6.27-2.96,9.41-4.43,13.44-6.29,26.87-12.59,40.31-18.88,2.61-1.22,5.46-.23,6.61,2.25,1.16,2.5.12,5.26-2.52,6.5-9.31,4.39-18.63,8.74-27.94,13.11-7.13,3.34-14.25,6.7-21.38,10.01-.77.36-1.63.49-2.45.73Z"/>
    </g>
  </g>
</svg>