<?xml version="1.0" encoding="UTF-8"?>
<svg id="Capa_2" xmlns="http://www.w3.org/2000/svg" viewBox="0 0 304.15 311.11">
  <g id="Guías">
    <g>
      <path d="M57.19,237.37c0-4.75-.08-8.74.02-12.72.27-11.44,8.27-19.32,19.78-19.36,18.34-.07,36.67-.06,55.01.02,2.75.01,4.72-.39,5.86-3.32.63-1.62,1.94-3.53,3.43-4.15,8.54-3.6,5.6-10.61,5.67-16.71-12.37-1.25-24.55-1.77-36.44-3.92-9.72-1.75-19.33-4.83-28.55-8.45-7.56-2.97-10.93-9.31-10.87-17.93.25-40.18.37-80.37-.07-120.55-.11-10.36,4.27-17.04,13.28-19.83,11.85-3.67,24.04-6.97,36.32-8.39,28.43-3.28,56.96-3.03,85,3.57,7.16,1.68,14.06,5,20.64,8.41,4.84,2.5,6.81,7.29,6.8,13.02-.1,41.85-.12,83.7.01,125.55.02,7.68-3.86,12.49-10.04,15.97-11.14,6.27-23.47,8.35-35.92,9.74-9.74,1.09-19.53,1.73-29.96,2.63,0,3.81-1.43,8.62.32,11.5,2.99,4.9,7.9,8.66,12.18,12.7.62.59,2.26.12,3.42.12,17.84,0,35.67-.02,53.51.01,12.68.03,20.42,7.86,20.5,20.63.02,3.63,0,7.25,0,11.46,2.33,0,4.11,0,5.88,0,12.17,0,24.34-.08,36.51.04,9.15.09,14.59,5.62,14.63,14.74.06,14.34.04,28.68.02,43.02-.01,10.72-5.13,15.83-16.01,15.91-9.83.07-19.67.02-29.51.02-22.84,0-45.68.02-68.51,0-11.56-.01-16.83-5.29-16.85-16.79-.01-13.67-.04-27.34,0-41.02.03-10.27,5.5-15.83,15.71-15.89,14.17-.08,28.34-.02,42.51-.02,1.79,0,3.58,0,5.77,0,0-5.31.45-10.14-.13-14.84-.54-4.41-3.74-7.22-8.28-7.26-19.5-.16-39.01-.16-58.51-.01-1.2,0-2.77,1.51-3.51,2.72-7.3,11.85-21.93,11.75-29.45-.14-.84-1.34-3-2.59-4.57-2.6-18.5-.18-37.01-.18-55.51-.08-7.05.04-10.29,3.46-10.44,10.54-.08,3.65-.01,7.3-.01,11.67,2.13,0,3.9,0,5.66,0,14,0,28.01-.03,42.01,0,10.97.03,16.38,5.37,16.41,16.21.03,13.84.03,27.68,0,41.52-.03,10.32-5.42,15.93-15.64,15.96-33.17.07-66.35.07-99.52,0-10.49-.02-15.7-5.33-15.72-15.73-.03-14.17-.04-28.34,0-42.52.03-9.99,5.45-15.39,15.51-15.43,13.64-.05,27.27-.01,41.65-.01ZM223.22,103.83c-47.55,14.46-94.71,14.46-142.2-.05,0,16.36-.17,33.18.21,49.99.05,2.21,2.52,5.35,4.66,6.32,5.71,2.58,11.73,4.83,17.85,6.11,26.34,5.5,53.01,5.7,79.59,2.64,11.44-1.32,22.68-4.88,33.81-8.09,2.45-.71,5.74-4.22,5.81-6.53.49-16.96.27-33.94.27-50.4ZM81.01,40.83c0,12.1,0,24.74,0,37.37,0,14.61,1.36,16.39,15.51,20.21,1.13.3,2.25.61,3.39.87,27.8,6.32,55.92,6.6,84.02,3.33,11.28-1.31,22.32-4.91,33.34-7.95,4.4-1.21,6.19-4.79,6.09-9.69-.28-13.5-.09-27.01-.11-40.52,0-1.41-.18-2.82-.23-3.5-47.51,14.03-94.55,14.03-142.01-.12ZM280.88,273.8c.12-5.19-4.43-9.93-9.7-10.11-5.29-.18-10.01,4.22-10.22,9.52-.22,5.61,4.24,10.26,9.88,10.29,5.34.03,9.93-4.4,10.04-9.7ZM107.25,273.96c.18-5.59-3.8-9.98-9.31-10.27-5.57-.29-10.23,4.16-10.3,9.83-.06,5.52,4.12,9.87,9.6,9.98,5.56.11,9.82-3.95,10.01-9.53ZM212.99,274.27s-.01,0-.02,0c0,2.67-.62,5.54.19,7.93.7,2.08,3.01,3.63,4.61,5.41,1.74-1.65,4.75-3.16,4.97-4.99.66-5.59.61-11.34,0-16.94-.19-1.79-3.24-4.8-4.53-4.58-1.95.33-4.32,2.72-5.02,4.75-.87,2.54-.21,5.59-.21,8.43ZM28.21,274.49c0-3,.52-6.12-.19-8.94-.45-1.82-2.78-4.54-4.11-4.45-1.89.12-5.06,2.31-5.21,3.86-.61,6.09-.6,12.32,0,18.41.15,1.56,3.26,3.75,5.15,3.9,1.33.11,3.67-2.54,4.16-4.35.72-2.63.18-5.61.19-8.44ZM192.01,274.08s-.01,0-.02,0c0,2.83-.57,5.83.19,8.44.56,1.95,3.08,4.93,4.28,4.74,2.01-.33,5-2.68,5.2-4.45.65-5.75.6-11.67-.02-17.43-.18-1.7-3.16-4.28-4.86-4.29-1.58,0-3.98,2.64-4.57,4.56-.79,2.59-.2,5.6-.2,8.43ZM244,274.32c0-2.83.57-5.83-.19-8.44-.57-1.97-2.85-3.44-4.37-5.13-1.78,1.62-4.87,3.08-5.09,4.89-.67,5.59-.34,11.3-.22,16.97.07,3.14,1.91,5.01,5.08,4.96,3.26-.05,4.69-2.17,4.77-5.25.07-2.66.01-5.33,0-8ZM60.84,274.02s-.02,0-.04,0c0,2.83-.56,5.82.18,8.44.55,1.95,2.52,4.38,4.35,4.9,3,.86,5.14-1.43,5.26-4.5.23-5.82.43-11.69-.18-17.45-.18-1.7-3.1-4.31-4.79-4.32-1.58-.01-4,2.59-4.59,4.5-.8,2.59-.2,5.6-.2,8.43ZM49.4,274.15s-.02,0-.02,0c0-2.99.55-6.14-.2-8.93-.47-1.76-3.04-4.31-4.39-4.15-1.84.22-4.7,2.56-4.86,4.22-.59,5.93-.59,11.99,0,17.92.16,1.61,3.11,3.9,4.94,4.07,1.37.13,3.86-2.43,4.33-4.19.74-2.8.2-5.94.2-8.93Z"/>
      <path d="M135.06,150.9c-11.97-1.79-23.94-3.55-35.91-5.38-1.63-.25-3.26-.67-4.82-1.23-2.91-1.05-5.23-2.88-3.99-6.29,1.09-3.02,3.45-3.66,6.85-3.11,12.91,2.1,25.89,3.76,38.85,5.58,1.31.18,3-.14,3.86.56,1.51,1.23,3.7,3.3,3.46,4.62-.32,1.75-2.54,3.37-4.29,4.53-.93.61-2.58.11-3.91.11-.03.21-.06.41-.1.62Z"/>
      <path d="M173.61,134.48c4.26.06,7.74,3.89,7.56,8.32-.18,4.31-3.55,7.58-7.76,7.51-4.42-.07-7.77-3.7-7.58-8.21.17-4.17,3.75-7.68,7.78-7.62Z"/>
      <path d="M209.24,140.58c-.06,4.17-3.47,7.64-7.58,7.7-4.34.06-7.89-3.53-7.83-7.93.06-4.57,3.5-7.83,8.03-7.62,4.23.2,7.43,3.61,7.37,7.85Z"/>
      <path d="M131.3,85.35c-10.84-1.71-21.69-3.4-32.53-5.14-1.64-.26-3.74-.28-4.74-1.28-1.65-1.65-2.58-4.02-3.81-6.09,2.16-1.06,4.45-3.23,6.47-3,13.7,1.57,27.34,3.73,41.02,5.51,3.43.45,6.1,1.59,5.84,5.32-.23,3.43-2.91,4.58-6.15,4.37-2-.12-3.99-.25-5.99-.38-.04.23-.07.46-.11.69Z"/>
      <path d="M181.19,77.16c.04,4.34-3.06,7.64-7.36,7.81-4.47.19-7.97-3.18-7.99-7.68-.02-4.25,3.21-7.72,7.36-7.9,4.33-.19,7.94,3.33,7.99,7.77Z"/>
      <path d="M201.49,83.18c-4.2-.04-7.8-3.89-7.67-8.21.13-4.3,3.46-7.53,7.72-7.5,4.42.03,7.83,3.61,7.67,8.07-.15,4.15-3.72,7.69-7.72,7.65Z"/>
    </g>
  </g>
</svg>