<?xml version="1.0" encoding="UTF-8"?>
<svg id="Capa_2" xmlns="http://www.w3.org/2000/svg" viewBox="0 0 25.67 25.76">
  <defs>
    <style>
      .cls-1 {
        fill: #a1aed0;
      }
    </style>
  </defs>
  <g id="Guías">
    <g>
      <path class="cls-1" d="M25.66,1.61c0-.77-.56-1.34-1.34-1.38-1.79-.08-3.57-.21-5.36-.2-2.93.02-5.85.13-8.78.21-.66.02-1.19.61-1.19,1.31,0,1.53,0,3.06,0,4.59,0,.76.54,1.34,1.3,1.37,2.36.1,4.71.2,7.03.29,2.36-.1,4.69-.19,7.01-.29.79-.03,1.31-.56,1.31-1.34,0-1.52,0-3.04,0-4.56ZM23.5,5.72c-2.34.04-4.67.14-7.01.14-1.81,0-3.61-.1-5.42-.15-.23,0-.31-.07-.31-.31.01-1.04,0-2.08,0-3.12,0-.19.04-.28.26-.29,4.15-.18,8.3-.24,12.45,0,.1,0,.2.02.35.03,0,.54,0,1.04,0,1.55,0,.59,0,1.18,0,1.77,0,.26-.05.37-.34.37Z"/>
      <path class="cls-1" d="M25.66,19.55c0-.77-.52-1.29-1.29-1.35-.72-.05-1.44-.07-2.15-.11-3.98-.2-7.97-.14-11.95.11-.78.05-1.27.57-1.27,1.34,0,1.51,0,3.02,0,4.53,0,.79.55,1.37,1.34,1.41,2.46.1,4.93.19,7.19.28,2.42-.1,4.64-.18,6.85-.28.72-.03,1.27-.57,1.28-1.29.02-1.55.02-3.1,0-4.64ZM23.82,23.57s-.02.04-.04.09c-4.31.26-8.64.21-12.98,0,0-.1-.02-.17-.02-.25,0-1.05,0-2.1,0-3.15,0-.22.06-.29.28-.3,3.72-.2,7.44-.21,11.17-.06.46.02.92.04,1.37.08.08,0,.22.12.22.18.01,1.14,0,2.28,0,3.41Z"/>
      <path class="cls-1" d="M25.65,10.54c0-.72-.53-1.28-1.16-1.31-2.47-.11-4.95-.2-7.31-.3-2.4.1-4.69.19-6.97.29-.68.03-1.21.58-1.22,1.28,0,1.55-.01,3.1,0,4.65,0,.73.57,1.31,1.3,1.35,1.85.08,3.69.22,5.54.21,2.87-.02,5.75-.13,8.62-.21.64-.02,1.18-.57,1.19-1.24.02-1.57.02-3.14,0-4.7ZM23.83,14.42c0,.19-.05.26-.25.27-4.21.24-8.42.19-12.64-.02-.05,0-.1-.02-.15-.03,0-.08-.02-.14-.02-.21,0-1.06,0-2.12,0-3.18,0-.21.06-.27.27-.28,4.17-.23,8.34-.22,12.52,0,.19.01.28.05.28.27-.01,1.06,0,2.12,0,3.18Z"/>
      <path class="cls-1" d="M7.79,19.47c0-.66-.5-1.21-1.15-1.3-1.8-.27-3.6-.26-5.4-.01-.82.11-1.23.63-1.24,1.46,0,.73,0,1.46,0,2.19,0,.76,0,1.52,0,2.28,0,.7.47,1.25,1.16,1.35,1.82.26,3.64.26,5.46,0,.68-.1,1.16-.63,1.17-1.32.01-1.55.01-3.1,0-4.64ZM5.7,23.73c-1.2.13-2.39.13-3.59,0-.19-.02-.28-.08-.27-.29,0-1.09,0-2.18,0-3.27,0-.2.07-.25.25-.28,1.21-.14,2.41-.14,3.62,0,.21.02.26.11.26.3-.01.54,0,1.08,0,1.62,0,.54,0,1.08,0,1.62,0,.21-.07.28-.27.3Z"/>
      <path class="cls-1" d="M7.8,3.84c0-.72,0-1.44,0-2.16,0-.82-.51-1.4-1.32-1.51-1.71-.23-3.43-.23-5.14,0C.51.28,0,.86,0,1.7c0,1.42,0,2.84,0,4.26,0,.92.45,1.45,1.36,1.53.82.08,1.65.16,2.48.15.93,0,1.86-.08,2.78-.19.75-.09,1.16-.64,1.17-1.4,0-.74,0-1.48,0-2.22ZM5.69,5.77c-1.19.13-2.37.14-3.56,0-.22-.02-.31-.09-.3-.33.02-.53,0-1.06,0-1.59,0-.4,0-.81,0-1.21,0-.13,0-.27,0-.4,0-.2.05-.28.26-.3,1.21-.13,2.41-.13,3.62,0,.19.02.25.09.25.28,0,1.09,0,2.18,0,3.27,0,.21-.08.27-.27.29Z"/>
      <path class="cls-1" d="M7.79,10.56c0-.73-.51-1.29-1.23-1.39-1.78-.24-3.56-.24-5.34,0-.71.1-1.21.61-1.21,1.33-.01,1.56-.01,3.12,0,4.67,0,.63.49,1.17,1.11,1.26,1.81.26,3.62.27,5.43.02.81-.11,1.24-.64,1.24-1.46,0-.72,0-1.44,0-2.16,0-.76,0-1.52,0-2.28ZM5.97,14.49c0,.17-.05.24-.23.26-1.23.13-2.45.14-3.68-.01-.08-.01-.21-.13-.21-.2-.01-1.16,0-2.32,0-3.47,0-.03.02-.06.04-.13.49-.04,1-.11,1.5-.1.78,0,1.55.06,2.33.09.19,0,.25.09.25.28,0,1.1,0,2.2,0,3.3Z"/>
    </g>
  </g>
</svg>